<mxfile>
    <diagram id="_mcgLiAfUi3kWNwTg--z" name="Page-1">
        <mxGraphModel dx="2448" dy="3042" grid="1" gridSize="10" guides="1" tooltips="1" connect="1" arrows="1" fold="1" page="1" pageScale="1" pageWidth="1920" pageHeight="1200" math="0" shadow="0">
            <root>
                <mxCell id="0"/>
                <mxCell id="1" parent="0"/>
                <mxCell id="2" value="" style="whiteSpace=wrap;html=1;fillColor=#f9f7ed;strokeColor=#36393d;" parent="1" vertex="1">
                    <mxGeometry x="-1310" y="-1139" width="700" height="630" as="geometry"/>
                </mxCell>
                <mxCell id="3" value="" style="whiteSpace=wrap;html=1;rounded=0;sketch=0;shadow=1;glass=0;fillColor=#f5f5f5;strokeColor=#666666;gradientDirection=east;" parent="1" vertex="1">
                    <mxGeometry x="-1303" y="-1131" width="685" height="612" as="geometry"/>
                </mxCell>
                <mxCell id="4" value="" style="rounded=0;whiteSpace=wrap;html=1;shadow=1;glass=0;sketch=0;fillColor=#f9f7ed;strokeColor=#36393d;" parent="1" vertex="1">
                    <mxGeometry x="-1310" y="-1159" width="700" height="20" as="geometry"/>
                </mxCell>
                <mxCell id="5" value="" style="rounded=0;whiteSpace=wrap;html=1;shadow=1;glass=0;sketch=0;fillColor=#eeeeee;strokeColor=#36393d;" parent="1" vertex="1">
                    <mxGeometry x="-1310" y="-1160" width="700" height="20" as="geometry"/>
                </mxCell>
                <mxCell id="6" value="" style="ellipse;whiteSpace=wrap;html=1;aspect=fixed;rounded=1;shadow=1;glass=0;sketch=0;fillColor=#e51400;strokeColor=#B20000;fontColor=#ffffff;" parent="1" vertex="1">
                    <mxGeometry x="-630" y="-1155" width="10" height="10" as="geometry"/>
                </mxCell>
                <mxCell id="7" value="" style="ellipse;whiteSpace=wrap;html=1;aspect=fixed;rounded=1;shadow=1;glass=0;sketch=0;fillColor=#f0a30a;strokeColor=#BD7000;fontColor=#ffffff;" parent="1" vertex="1">
                    <mxGeometry x="-650" y="-1155" width="10" height="10" as="geometry"/>
                </mxCell>
                <mxCell id="8" value="" style="ellipse;whiteSpace=wrap;html=1;aspect=fixed;rounded=1;shadow=1;glass=0;sketch=0;fillColor=#cdeb8b;strokeColor=#36393d;" parent="1" vertex="1">
                    <mxGeometry x="-670" y="-1155" width="10" height="10" as="geometry"/>
                </mxCell>
                <mxCell id="9" value="&lt;h3&gt;&lt;font face=&quot;Verdana&quot; color=&quot;#000000&quot;&gt;&lt;span style=&quot;font-size: 50px ; font-weight: 400&quot;&gt;0:37&lt;/span&gt;&lt;/font&gt;&lt;/h3&gt;" style="text;html=1;strokeColor=none;fillColor=none;align=center;verticalAlign=middle;whiteSpace=wrap;rounded=0;" parent="1" vertex="1">
                    <mxGeometry x="-980" y="-990" width="40" height="20" as="geometry"/>
                </mxCell>
                <mxCell id="11" value="&lt;font color=&quot;#000000&quot;&gt;&lt;span style=&quot;font-size: 20px&quot;&gt;Question 1&lt;br&gt;&lt;br&gt;What is &lt;b&gt;5+5&lt;/b&gt;?&lt;br&gt;&lt;br&gt;&lt;/span&gt;&lt;/font&gt;" style="rounded=0;whiteSpace=wrap;html=1;fillColor=#FFFFFF;shadow=1;" parent="1" vertex="1">
                    <mxGeometry x="-1300" y="-906" width="680" height="120" as="geometry"/>
                </mxCell>
                <mxCell id="12" value="" style="rounded=0;whiteSpace=wrap;html=1;fillColor=#E8E8E8;" parent="1" vertex="1">
                    <mxGeometry x="-1300" y="-786" width="680" height="10" as="geometry"/>
                </mxCell>
                <mxCell id="13" value="&lt;span style=&quot;color: rgb(0 , 0 , 0) ; font-size: 20px&quot;&gt;...&lt;/span&gt;" style="rounded=1;whiteSpace=wrap;html=1;fillColor=#FFFFFF;strokeColor=#696969;" parent="1" vertex="1">
                    <mxGeometry x="-1135.5" y="-752" width="350" height="40" as="geometry"/>
                </mxCell>
                <mxCell id="14" value="" style="rounded=0;whiteSpace=wrap;html=1;shadow=0;strokeColor=none;fillColor=#CCE5FF;" parent="1" vertex="1">
                    <mxGeometry x="-1300" y="-1129" width="680" height="70" as="geometry"/>
                </mxCell>
                <mxCell id="16" value="" style="rounded=0;whiteSpace=wrap;html=1;shadow=0;strokeColor=none;fillColor=#BDDEFF;" parent="1" vertex="1">
                    <mxGeometry x="-1303" y="-1059" width="683" height="10" as="geometry"/>
                </mxCell>
                <mxCell id="17" value="&lt;p&gt;&lt;font style=&quot;font-size: 35px ; font-weight: normal&quot; color=&quot;#4d4d4d&quot;&gt;Math Quiz&lt;/font&gt;&lt;/p&gt;" style="text;html=1;strokeColor=none;align=center;verticalAlign=middle;whiteSpace=wrap;rounded=0;shadow=0;" parent="1" vertex="1">
                    <mxGeometry x="-1300" y="-1104" width="680" height="20" as="geometry"/>
                </mxCell>
                <mxCell id="32" style="edgeStyle=orthogonalEdgeStyle;rounded=0;orthogonalLoop=1;jettySize=auto;html=1;strokeColor=#99CCFF;" parent="1" source="19" edge="1">
                    <mxGeometry relative="1" as="geometry">
                        <mxPoint x="-1310" y="-230" as="targetPoint"/>
                        <Array as="points">
                            <mxPoint x="-1058" y="-412"/>
                            <mxPoint x="-1440" y="-412"/>
                            <mxPoint x="-1440" y="-230"/>
                        </Array>
                    </mxGeometry>
                </mxCell>
                <mxCell id="19" value="&lt;font style=&quot;font-size: 22px&quot; color=&quot;#4d4d4d&quot;&gt;Help&lt;/font&gt;" style="rounded=1;whiteSpace=wrap;html=1;fillColor=#FFFFFF;strokeColor=#696969;" parent="1" vertex="1">
                    <mxGeometry x="-1135" y="-594" width="155" height="40" as="geometry"/>
                </mxCell>
                <mxCell id="22" value="" style="triangle;whiteSpace=wrap;html=1;rounded=0;shadow=0;strokeColor=#696969;fillColor=#BDDEFF;" parent="1" vertex="1">
                    <mxGeometry x="-975.5" y="-671" width="30" height="40" as="geometry"/>
                </mxCell>
                <mxCell id="34" style="edgeStyle=orthogonalEdgeStyle;rounded=0;orthogonalLoop=1;jettySize=auto;html=1;strokeColor=#99CCFF;" parent="1" source="27" edge="1">
                    <mxGeometry relative="1" as="geometry">
                        <mxPoint x="-480" y="-220" as="targetPoint"/>
                        <Array as="points">
                            <mxPoint x="-868" y="-410"/>
                            <mxPoint x="-480" y="-410"/>
                            <mxPoint x="-480" y="-230"/>
                        </Array>
                    </mxGeometry>
                </mxCell>
                <mxCell id="27" value="&lt;font style=&quot;font-size: 22px&quot; color=&quot;#4d4d4d&quot;&gt;Statistics&lt;/font&gt;" style="rounded=1;whiteSpace=wrap;html=1;fillColor=#FFFFFF;strokeColor=#696969;" parent="1" vertex="1">
                    <mxGeometry x="-950" y="-594" width="163.5" height="40" as="geometry"/>
                </mxCell>
                <mxCell id="35" value="" style="rounded=0;whiteSpace=wrap;html=1;shadow=1;glass=0;sketch=0;fillColor=#f9f7ed;strokeColor=#36393d;" parent="1" vertex="1">
                    <mxGeometry x="-1790" y="-229" width="700" height="20" as="geometry"/>
                </mxCell>
                <mxCell id="36" value="" style="rounded=0;whiteSpace=wrap;html=1;shadow=1;glass=0;sketch=0;fillColor=#eeeeee;strokeColor=#36393d;" parent="1" vertex="1">
                    <mxGeometry x="-1790" y="-230" width="700" height="20" as="geometry"/>
                </mxCell>
                <mxCell id="37" value="" style="ellipse;whiteSpace=wrap;html=1;aspect=fixed;rounded=1;shadow=1;glass=0;sketch=0;fillColor=#e51400;strokeColor=#B20000;fontColor=#ffffff;" parent="1" vertex="1">
                    <mxGeometry x="-1110" y="-225" width="10" height="10" as="geometry"/>
                </mxCell>
                <mxCell id="38" value="" style="ellipse;whiteSpace=wrap;html=1;aspect=fixed;rounded=1;shadow=1;glass=0;sketch=0;fillColor=#f0a30a;strokeColor=#BD7000;fontColor=#ffffff;" parent="1" vertex="1">
                    <mxGeometry x="-1130" y="-225" width="10" height="10" as="geometry"/>
                </mxCell>
                <mxCell id="39" value="" style="ellipse;whiteSpace=wrap;html=1;aspect=fixed;rounded=1;shadow=1;glass=0;sketch=0;fillColor=#cdeb8b;strokeColor=#36393d;" parent="1" vertex="1">
                    <mxGeometry x="-1150" y="-225" width="10" height="10" as="geometry"/>
                </mxCell>
                <mxCell id="40" value="" style="whiteSpace=wrap;html=1;fillColor=#f9f7ed;strokeColor=#36393d;" parent="1" vertex="1">
                    <mxGeometry x="-1790" y="-209" width="700" height="389" as="geometry"/>
                </mxCell>
                <mxCell id="41" value="" style="whiteSpace=wrap;html=1;rounded=0;sketch=0;shadow=1;glass=0;fillColor=#f5f5f5;strokeColor=#666666;gradientDirection=east;" parent="1" vertex="1">
                    <mxGeometry x="-1783" y="-201" width="685" height="371" as="geometry"/>
                </mxCell>
                <mxCell id="43" value="" style="rounded=0;whiteSpace=wrap;html=1;shadow=0;strokeColor=none;fillColor=#CCE5FF;" parent="1" vertex="1">
                    <mxGeometry x="-1780" y="-200" width="680" height="20" as="geometry"/>
                </mxCell>
                <mxCell id="44" value="" style="rounded=0;whiteSpace=wrap;html=1;shadow=0;strokeColor=none;fillColor=#BDDEFF;" parent="1" vertex="1">
                    <mxGeometry x="-1783" y="-180" width="683" height="10" as="geometry"/>
                </mxCell>
                <mxCell id="45" value="&lt;h1 style=&quot;font-size: 28px&quot;&gt;&lt;font style=&quot;font-size: 28px&quot;&gt;Help and Instructions&lt;/font&gt;&lt;/h1&gt;&lt;div style=&quot;font-size: 28px&quot;&gt;&lt;font style=&quot;font-size: 28px&quot;&gt;Begin the quiz by clicking the &lt;i&gt;Play&lt;/i&gt; button. Type your answer in the entry form below the question and click the triangle to submit it. Play until the time runs out!&lt;/font&gt;&lt;/div&gt;" style="text;html=1;strokeColor=none;fillColor=none;spacing=5;spacingTop=-20;whiteSpace=wrap;overflow=hidden;rounded=0;fontSize=29;fontColor=#333333;" parent="1" vertex="1">
                    <mxGeometry x="-1703.25" y="-130.25" width="526.5" height="203.25" as="geometry"/>
                </mxCell>
                <mxCell id="48" value="&lt;font color=&quot;#4d4d4d&quot;&gt;&lt;span style=&quot;font-size: 22px&quot;&gt;Dismiss&lt;/span&gt;&lt;/font&gt;" style="rounded=1;whiteSpace=wrap;html=1;fillColor=#FFFFFF;strokeColor=#696969;" parent="1" vertex="1">
                    <mxGeometry x="-1519" y="100" width="155" height="40" as="geometry"/>
                </mxCell>
                <mxCell id="49" value="" style="rounded=0;whiteSpace=wrap;html=1;shadow=1;glass=0;sketch=0;fillColor=#f9f7ed;strokeColor=#36393d;" parent="1" vertex="1">
                    <mxGeometry x="-1310" y="-1729" width="700" height="20" as="geometry"/>
                </mxCell>
                <mxCell id="50" value="" style="rounded=0;whiteSpace=wrap;html=1;shadow=1;glass=0;sketch=0;fillColor=#eeeeee;strokeColor=#36393d;" parent="1" vertex="1">
                    <mxGeometry x="-1310" y="-1730" width="700" height="20" as="geometry"/>
                </mxCell>
                <mxCell id="51" value="" style="ellipse;whiteSpace=wrap;html=1;aspect=fixed;rounded=1;shadow=1;glass=0;sketch=0;fillColor=#e51400;strokeColor=#B20000;fontColor=#ffffff;" parent="1" vertex="1">
                    <mxGeometry x="-630" y="-1725" width="10" height="10" as="geometry"/>
                </mxCell>
                <mxCell id="52" value="" style="ellipse;whiteSpace=wrap;html=1;aspect=fixed;rounded=1;shadow=1;glass=0;sketch=0;fillColor=#f0a30a;strokeColor=#BD7000;fontColor=#ffffff;" parent="1" vertex="1">
                    <mxGeometry x="-650" y="-1725" width="10" height="10" as="geometry"/>
                </mxCell>
                <mxCell id="53" value="" style="ellipse;whiteSpace=wrap;html=1;aspect=fixed;rounded=1;shadow=1;glass=0;sketch=0;fillColor=#cdeb8b;strokeColor=#36393d;" parent="1" vertex="1">
                    <mxGeometry x="-670" y="-1725" width="10" height="10" as="geometry"/>
                </mxCell>
                <mxCell id="54" value="" style="whiteSpace=wrap;html=1;fillColor=#f9f7ed;strokeColor=#36393d;" parent="1" vertex="1">
                    <mxGeometry x="-1310" y="-1709" width="700" height="389" as="geometry"/>
                </mxCell>
                <mxCell id="90" style="edgeStyle=orthogonalEdgeStyle;rounded=0;orthogonalLoop=1;jettySize=auto;html=1;entryX=0.5;entryY=0;entryDx=0;entryDy=0;strokeColor=#99CCFF;fontSize=29;fontColor=#4D4D4D;" parent="1" source="55" target="5" edge="1">
                    <mxGeometry relative="1" as="geometry"/>
                </mxCell>
                <mxCell id="55" value="" style="whiteSpace=wrap;html=1;rounded=0;sketch=0;shadow=1;glass=0;fillColor=#f5f5f5;strokeColor=#666666;gradientDirection=east;" parent="1" vertex="1">
                    <mxGeometry x="-1303" y="-1701" width="685" height="371" as="geometry"/>
                </mxCell>
                <mxCell id="56" value="" style="rounded=0;whiteSpace=wrap;html=1;shadow=0;strokeColor=none;fillColor=#CCE5FF;" parent="1" vertex="1">
                    <mxGeometry x="-1300" y="-1700" width="680" height="20" as="geometry"/>
                </mxCell>
                <mxCell id="57" value="" style="rounded=0;whiteSpace=wrap;html=1;shadow=0;strokeColor=none;fillColor=#BDDEFF;" parent="1" vertex="1">
                    <mxGeometry x="-1303" y="-1680" width="683" height="10" as="geometry"/>
                </mxCell>
                <mxCell id="62" value="&lt;font color=&quot;#4d4d4d&quot;&gt;&lt;span style=&quot;font-size: 22px&quot;&gt;Play&lt;/span&gt;&lt;/font&gt;" style="rounded=1;whiteSpace=wrap;html=1;fillColor=#FFFFFF;strokeColor=#696969;" parent="1" vertex="1">
                    <mxGeometry x="-1039" y="-1430" width="155" height="40" as="geometry"/>
                </mxCell>
                <mxCell id="67" value="&lt;font&gt;&lt;b&gt;&lt;font style=&quot;font-size: 36px&quot;&gt;Math Quiz&lt;/font&gt;&lt;/b&gt;&lt;br&gt;&lt;/font&gt;" style="rounded=0;whiteSpace=wrap;html=1;fillColor=#FFFFFF;shadow=1;fontColor=#4D4D4D;" parent="1" vertex="1">
                    <mxGeometry x="-1300.5" y="-1620" width="680" height="120" as="geometry"/>
                </mxCell>
                <mxCell id="69" value="" style="rounded=0;whiteSpace=wrap;html=1;fillColor=#E8E8E8;" parent="1" vertex="1">
                    <mxGeometry x="-1301.5" y="-1500" width="680" height="10" as="geometry"/>
                </mxCell>
                <mxCell id="70" value="" style="rounded=0;whiteSpace=wrap;html=1;shadow=1;glass=0;sketch=0;fillColor=#f9f7ed;strokeColor=#36393d;" parent="1" vertex="1">
                    <mxGeometry x="-830" y="-232.63" width="700" height="20" as="geometry"/>
                </mxCell>
                <mxCell id="71" value="" style="rounded=0;whiteSpace=wrap;html=1;shadow=1;glass=0;sketch=0;fillColor=#eeeeee;strokeColor=#36393d;" parent="1" vertex="1">
                    <mxGeometry x="-830" y="-233.63" width="700" height="20" as="geometry"/>
                </mxCell>
                <mxCell id="72" value="" style="ellipse;whiteSpace=wrap;html=1;aspect=fixed;rounded=1;shadow=1;glass=0;sketch=0;fillColor=#e51400;strokeColor=#B20000;fontColor=#ffffff;" parent="1" vertex="1">
                    <mxGeometry x="-150" y="-228.63" width="10" height="10" as="geometry"/>
                </mxCell>
                <mxCell id="73" value="" style="ellipse;whiteSpace=wrap;html=1;aspect=fixed;rounded=1;shadow=1;glass=0;sketch=0;fillColor=#f0a30a;strokeColor=#BD7000;fontColor=#ffffff;" parent="1" vertex="1">
                    <mxGeometry x="-170" y="-228.63" width="10" height="10" as="geometry"/>
                </mxCell>
                <mxCell id="74" value="" style="ellipse;whiteSpace=wrap;html=1;aspect=fixed;rounded=1;shadow=1;glass=0;sketch=0;fillColor=#cdeb8b;strokeColor=#36393d;" parent="1" vertex="1">
                    <mxGeometry x="-190" y="-228.63" width="10" height="10" as="geometry"/>
                </mxCell>
                <mxCell id="75" value="" style="whiteSpace=wrap;html=1;fillColor=#f9f7ed;strokeColor=#36393d;" parent="1" vertex="1">
                    <mxGeometry x="-830" y="-212.63" width="700" height="392.63" as="geometry"/>
                </mxCell>
                <mxCell id="76" value="" style="whiteSpace=wrap;html=1;rounded=0;sketch=0;shadow=1;glass=0;fillColor=#f5f5f5;strokeColor=#666666;gradientDirection=east;" parent="1" vertex="1">
                    <mxGeometry x="-823" y="-204.63" width="685" height="374.63" as="geometry"/>
                </mxCell>
                <mxCell id="77" value="" style="rounded=0;whiteSpace=wrap;html=1;shadow=0;strokeColor=none;fillColor=#CCE5FF;" parent="1" vertex="1">
                    <mxGeometry x="-820" y="-203.63" width="680" height="20" as="geometry"/>
                </mxCell>
                <mxCell id="78" value="" style="rounded=0;whiteSpace=wrap;html=1;shadow=0;strokeColor=none;fillColor=#BDDEFF;" parent="1" vertex="1">
                    <mxGeometry x="-823" y="-183.63" width="683" height="10" as="geometry"/>
                </mxCell>
                <mxCell id="80" value="&lt;font color=&quot;#4d4d4d&quot;&gt;&lt;span style=&quot;font-size: 22px&quot;&gt;Dismiss&lt;/span&gt;&lt;/font&gt;" style="rounded=1;whiteSpace=wrap;html=1;fillColor=#FFFFFF;strokeColor=#696969;" parent="1" vertex="1">
                    <mxGeometry x="-461.5" y="80" width="155" height="40" as="geometry"/>
                </mxCell>
                <mxCell id="82" value="&lt;b&gt;Statistics&lt;/b&gt;" style="text;html=1;strokeColor=none;fillColor=none;align=center;verticalAlign=middle;whiteSpace=wrap;rounded=0;fontSize=29;fontColor=#4D4D4D;" parent="1" vertex="1">
                    <mxGeometry x="-820" y="-140" width="680" height="20" as="geometry"/>
                </mxCell>
                <mxCell id="85" value="&lt;h1 style=&quot;font-size: 19px&quot;&gt;&lt;br&gt;&lt;/h1&gt;&lt;div style=&quot;font-size: 19px&quot;&gt;&lt;b&gt;Correct&lt;/b&gt;&lt;/div&gt;&lt;div style=&quot;font-size: 19px&quot;&gt;&lt;b&gt;Incorrect&lt;/b&gt;&lt;/div&gt;" style="text;html=1;strokeColor=none;fillColor=none;spacing=5;spacingTop=-20;whiteSpace=wrap;overflow=hidden;rounded=0;fontSize=29;fontColor=#4D4D4D;" parent="1" vertex="1">
                    <mxGeometry x="-770" y="-90" width="110" height="320" as="geometry"/>
                </mxCell>
                <mxCell id="86" value="&lt;h1 style=&quot;font-size: 19px&quot;&gt;&lt;span style=&quot;&quot;&gt;&lt;br&gt;&lt;/span&gt;&lt;/h1&gt;&lt;div style=&quot;font-size: 19px&quot;&gt;7&lt;/div&gt;&lt;div style=&quot;font-size: 19px&quot;&gt;3&lt;/div&gt;" style="text;html=1;strokeColor=none;fillColor=none;spacing=5;spacingTop=-20;whiteSpace=wrap;overflow=hidden;rounded=0;fontSize=29;fontColor=#4D4D4D;fontStyle=0" parent="1" vertex="1">
                    <mxGeometry x="-640" y="-90" width="280" height="100" as="geometry"/>
                </mxCell>
                <mxCell id="92" style="edgeStyle=orthogonalEdgeStyle;rounded=0;orthogonalLoop=1;jettySize=auto;html=1;strokeColor=#99CCFF;fontSize=29;fontColor=#4D4D4D;" parent="1" source="91" edge="1">
                    <mxGeometry relative="1" as="geometry">
                        <mxPoint x="-960" y="390" as="targetPoint"/>
                        <Array as="points">
                            <mxPoint x="-582" y="250"/>
                            <mxPoint x="-960" y="250"/>
                        </Array>
                    </mxGeometry>
                </mxCell>
                <mxCell id="91" value="&lt;font color=&quot;#4d4d4d&quot;&gt;&lt;span style=&quot;font-size: 22px&quot;&gt;Export&lt;/span&gt;&lt;/font&gt;" style="rounded=1;whiteSpace=wrap;html=1;fillColor=#FFFFFF;strokeColor=#696969;" parent="1" vertex="1">
                    <mxGeometry x="-660" y="80" width="155" height="40" as="geometry"/>
                </mxCell>
                <mxCell id="99" value="" style="rounded=0;whiteSpace=wrap;html=1;shadow=1;glass=0;sketch=0;fillColor=#f9f7ed;strokeColor=#36393d;" parent="1" vertex="1">
                    <mxGeometry x="-1310" y="394" width="700" height="20" as="geometry"/>
                </mxCell>
                <mxCell id="100" value="" style="rounded=0;whiteSpace=wrap;html=1;shadow=1;glass=0;sketch=0;fillColor=#eeeeee;strokeColor=#36393d;" parent="1" vertex="1">
                    <mxGeometry x="-1310" y="393" width="700" height="20" as="geometry"/>
                </mxCell>
                <mxCell id="101" value="" style="ellipse;whiteSpace=wrap;html=1;aspect=fixed;rounded=1;shadow=1;glass=0;sketch=0;fillColor=#e51400;strokeColor=#B20000;fontColor=#ffffff;" parent="1" vertex="1">
                    <mxGeometry x="-630" y="398" width="10" height="10" as="geometry"/>
                </mxCell>
                <mxCell id="102" value="" style="ellipse;whiteSpace=wrap;html=1;aspect=fixed;rounded=1;shadow=1;glass=0;sketch=0;fillColor=#f0a30a;strokeColor=#BD7000;fontColor=#ffffff;" parent="1" vertex="1">
                    <mxGeometry x="-650" y="398" width="10" height="10" as="geometry"/>
                </mxCell>
                <mxCell id="103" value="" style="ellipse;whiteSpace=wrap;html=1;aspect=fixed;rounded=1;shadow=1;glass=0;sketch=0;fillColor=#cdeb8b;strokeColor=#36393d;" parent="1" vertex="1">
                    <mxGeometry x="-670" y="398" width="10" height="10" as="geometry"/>
                </mxCell>
                <mxCell id="104" value="" style="whiteSpace=wrap;html=1;fillColor=#f9f7ed;strokeColor=#36393d;" parent="1" vertex="1">
                    <mxGeometry x="-1310" y="414" width="700" height="392.63" as="geometry"/>
                </mxCell>
                <mxCell id="105" value="" style="whiteSpace=wrap;html=1;rounded=0;sketch=0;shadow=1;glass=0;fillColor=#f5f5f5;strokeColor=#666666;gradientDirection=east;" parent="1" vertex="1">
                    <mxGeometry x="-1303" y="422" width="685" height="374.63" as="geometry"/>
                </mxCell>
                <mxCell id="106" value="" style="rounded=0;whiteSpace=wrap;html=1;shadow=0;strokeColor=none;fillColor=#CCE5FF;" parent="1" vertex="1">
                    <mxGeometry x="-1300" y="423" width="680" height="20" as="geometry"/>
                </mxCell>
                <mxCell id="107" value="" style="rounded=0;whiteSpace=wrap;html=1;shadow=0;strokeColor=none;fillColor=#BDDEFF;" parent="1" vertex="1">
                    <mxGeometry x="-1303" y="443" width="683" height="10" as="geometry"/>
                </mxCell>
                <mxCell id="108" value="&lt;font color=&quot;#4d4d4d&quot;&gt;&lt;span style=&quot;font-size: 22px&quot;&gt;Dismiss&lt;/span&gt;&lt;/font&gt;" style="rounded=1;whiteSpace=wrap;html=1;fillColor=#FFFFFF;strokeColor=#696969;" parent="1" vertex="1">
                    <mxGeometry x="-941.5" y="706.63" width="155" height="40" as="geometry"/>
                </mxCell>
                <mxCell id="109" value="&lt;b&gt;Export&lt;/b&gt;" style="text;html=1;strokeColor=none;fillColor=none;align=center;verticalAlign=middle;whiteSpace=wrap;rounded=0;fontSize=29;fontColor=#4D4D4D;" parent="1" vertex="1">
                    <mxGeometry x="-1300" y="486.63" width="680" height="20" as="geometry"/>
                </mxCell>
                <mxCell id="111" value="&lt;font color=&quot;#4d4d4d&quot;&gt;&lt;span style=&quot;font-size: 22px&quot;&gt;Export&lt;/span&gt;&lt;/font&gt;" style="rounded=1;whiteSpace=wrap;html=1;fillColor=#FFFFFF;strokeColor=#696969;" parent="1" vertex="1">
                    <mxGeometry x="-1135.5" y="706.63" width="155" height="40" as="geometry"/>
                </mxCell>
                <mxCell id="112" value="&lt;span style=&quot;font-size: 20px&quot;&gt;...&lt;/span&gt;" style="rounded=1;whiteSpace=wrap;html=1;fillColor=#FFFFFF;strokeColor=#696969;fontColor=#4D4D4D;" parent="1" vertex="1">
                    <mxGeometry x="-1135" y="600" width="350" height="40" as="geometry"/>
                </mxCell>
                <mxCell id="114" value="&lt;font style=&quot;font-size: 19px;&quot;&gt;Enter a valid filename&lt;/font&gt;" style="text;html=1;strokeColor=none;fillColor=none;align=left;verticalAlign=middle;whiteSpace=wrap;rounded=0;fontSize=19;fontColor=#4D4D4D;" parent="1" vertex="1">
                    <mxGeometry x="-1130" y="570" width="340" height="20" as="geometry"/>
                </mxCell>
            </root>
        </mxGraphModel>
    </diagram>
</mxfile>